<svg id="Bloomberg_black" data-name="Bloomberg black" xmlns="http://www.w3.org/2000/svg" viewBox="0 0 449.73 174.04"><g id="Bloomberg"><path d="M78.83,77.71v-.15c5.26-1.58,8.86-5.4,8.86-11.16,0-9.29-7.92-12.82-15.63-12.82H52.19v51H70.55c9.65,0,19.3-3.46,19.3-14.55A12.13,12.13,0,0,0,78.83,77.71ZM61.26,61.36h7.49c6.84,0,9.87,2.16,9.87,6.55,0,3.82-3,6.41-9.08,6.41H61.26Zm8.36,35.43H61.26V82.1H70c7.34,0,10.8,1.87,10.8,7.2C80.78,96,74.3,96.79,69.62,96.79ZM129,69.14c-10.44,0-18.8,7.27-18.8,18.14s8.36,18.15,18.8,18.15,18.79-7.27,18.79-18.15S139.43,69.14,129,69.14Zm0,28.51c-6.34,0-10.16-5-10.16-10.37S122.65,76.92,129,76.92s10.15,5,10.15,10.36S135.33,97.65,129,97.65Zm41.49-28.51c-10.44,0-18.79,7.27-18.79,18.14s8.35,18.15,18.79,18.15,18.8-7.27,18.8-18.15S180.92,69.14,170.48,69.14Zm0,28.51c-6.33,0-10.15-5-10.15-10.37s3.82-10.36,10.15-10.36,10.16,5,10.16,10.36S176.82,97.65,170.48,97.65ZM248.13,84v20.6h-8.65V85c0-4.32-1.29-8.07-6.4-8.07-5.4,0-7.42,4.47-7.42,8.93v18.73H217V84c0-4.25-1.73-7.06-5.91-7.06-5.68,0-7.92,4.18-7.92,8.79v18.87h-8.64V70h8.21v5.4h.14c1.52-3.24,4.83-6.26,10.59-6.26,5.33,0,9,2.08,10.8,6.41,2.52-4.4,6.19-6.41,11.38-6.41C244.89,69.14,248.13,75.69,248.13,84Zm27.6-14.83c-6.49,0-9.94,3-11.74,5.25h-.22v-22h-8.64v52.19h8.21V99.38h.14c2.53,4.18,7.06,6.05,11.89,6.05,10.65,0,17.06-7.92,17.06-18.15S285.59,69.14,275.73,69.14Zm-2.09,28.51c-6.34,0-10.16-5-10.16-10.37s3.82-10.36,10.16-10.36,10.15,5,10.15,10.36S280,97.65,273.64,97.65Zm41.49-28.51c-10.44,0-18.79,7.27-18.79,18.14s8.35,18.15,18.79,18.15a18,18,0,0,0,14.62-6.91l-6.19-4.68a11.38,11.38,0,0,1-9.29,4.68A9,9,0,0,1,305,90.31h26.36V87.93C331.34,75.91,324.78,69.14,315.13,69.14ZM305,83.83c.65-5,3.82-8.21,8.93-8.21,5.4,0,8.71,3.17,8.78,8.21Zm51-14.69a11.35,11.35,0,0,1,3.09.5V78a16.72,16.72,0,0,0-4.17-.65c-8.14,0-9.29,6.84-9.29,8.71v18.51H337V70h8.64v5.48h.15A11,11,0,0,1,356,69.14Zm33.36.86v5.19h-.15c-2.52-4.18-7.05-6-11.88-6-10.66,0-17.07,7.92-17.07,18.14,0,9.8,6.85,17.72,17.21,17.72,4.32,0,8.79-1.66,11.31-5h.14v2.52c0,6.84-2.59,11.59-10.94,11.59-4.83,0-8.43-1.8-11.88-5l-5.19,7.06c4.9,4.32,10.73,5.69,17.14,5.69,13.47,0,19.52-7.92,19.52-20.38V70ZM379,97.22a10,10,0,0,1-10.15-10c0-6.12,4.17-10.3,10.22-10.3,6.27,0,10.23,4.18,10.23,10.16C389.34,92.83,385.45,97.22,379,97.22ZM104.41,52.38v52.19H95.69V52.38Z"/></g></svg>